<svg id="Группа_2" data-name="Группа 2" xmlns="http://www.w3.org/2000/svg" xmlns:xlink="http://www.w3.org/1999/xlink" width="124.25" height="225" viewBox="0 0 124.25 225">
  <metadata><?xpacket begin="﻿" id="W5M0MpCehiHzreSzNTczkc9d"?>
<x:xmpmeta xmlns:x="adobe:ns:meta/" x:xmptk="Adobe XMP Core 5.6-c138 79.159824, 2016/09/14-01:09:01        ">
   <rdf:RDF xmlns:rdf="http://www.w3.org/1999/02/22-rdf-syntax-ns#">
      <rdf:Description rdf:about=""/>
   </rdf:RDF>
</x:xmpmeta>
                                                                                                    
                                                                                                    
                                                                                                    
                                                                                                    
                                                                                                    
                                                                                                    
                                                                                                    
                                                                                                    
                                                                                                    
                                                                                                    
                                                                                                    
                                                                                                    
                                                                                                    
                                                                                                    
                                                                                                    
                                                                                                    
                                                                                                    
                                                                                                    
                                                                                                    
                                                                                                    
                           
<?xpacket end="w"?></metadata>
<defs>
    <style>
      .cls-1 {
        filter: url(#filter);
      }

      .cls-2 {
        fill: #047dd1;
        fill-rule: evenodd;
      }
    </style>
    <filter id="filter" filterUnits="userSpaceOnUse">
      <feFlood result="flood" flood-color="#ed6355"/>
      <feComposite result="composite" operator="in" in2="SourceGraphic"/>
      <feBlend result="blend" in2="SourceGraphic"/>
    </filter>
  </defs>
  <g class="cls-1">
    <path id="Rounded_Rectangle_1" data-name="Rounded Rectangle 1" class="cls-2" d="M364.875,334.5a5.25,5.25,0,0,1,5.25,5.25v25.266a5.25,5.25,0,1,1-10.5,0V339.75A5.249,5.249,0,0,1,364.875,334.5Z" transform="translate(-302.75 -334.5)"/>
    <path id="Rounded_Rectangle_1_copy" data-name="Rounded Rectangle 1 copy" class="cls-2" d="M425.319,362.967a5.136,5.136,0,0,1,.169,7.266l-8.527,8.516a5.266,5.266,0,0,1-7.444-7.435l8.527-8.516A5.153,5.153,0,0,1,425.319,362.967Z" transform="translate(-302.75 -334.5)"/>
    <path id="Rounded_Rectangle_1_copy_2" data-name="Rounded Rectangle 1 copy 2" class="cls-2" d="M304.355,363.438a5.174,5.174,0,0,0-.17,7.317l8.587,8.575a5.3,5.3,0,0,0,7.5-7.487l-8.587-8.575A5.19,5.19,0,0,0,304.355,363.438Z" transform="translate(-302.75 -334.5)"/>
  </g>
  <g class="cls-1">
    <path id="Rounded_Rectangle_1_copy_3" data-name="Rounded Rectangle 1 copy 3" class="cls-2" d="M364.828,523.734a5.25,5.25,0,0,1,5.25,5.25V554.25a5.25,5.25,0,0,1-10.5,0V528.984A5.251,5.251,0,0,1,364.828,523.734Z" transform="translate(-302.75 -334.5)"/>
    <path id="Rounded_Rectangle_1_copy_3-2" data-name="Rounded Rectangle 1 copy 3" class="cls-2" d="M304.345,531.033a5.135,5.135,0,0,1-.169-7.266l8.532-8.516a5.268,5.268,0,0,1,7.449,7.435l-8.532,8.516A5.159,5.159,0,0,1,304.345,531.033Z" transform="translate(-302.75 -334.5)"/>
    <path id="Rounded_Rectangle_1_copy_3-3" data-name="Rounded Rectangle 1 copy 3" class="cls-2" d="M425.373,530.562a5.171,5.171,0,0,0,.17-7.317l-8.592-8.575a5.3,5.3,0,0,0-7.5,7.486l8.592,8.576A5.2,5.2,0,0,0,425.373,530.562Z" transform="translate(-302.75 -334.5)"/>
  </g>
</svg>
