<svg xmlns="http://www.w3.org/2000/svg" height="226" width="125">
  <defs>
    <filter id="a">
      <feFlood result="floodOut" flood-opacity="1" flood-color="#ED6355"/>
      <feComposite result="compOut" in2="SourceGraphic" in="floodOut" operator="atop"/>
      <feBlend in2="SourceGraphic" in="compOut"/>
    </filter>
    <filter id="b">
      <feFlood result="floodOut" flood-opacity="1" flood-color="#ED6355"/>
      <feComposite result="compOut" in2="SourceGraphic" in="floodOut" operator="atop"/>
      <feBlend in2="SourceGraphic" in="compOut"/>
    </filter>
  </defs>
  <g filter="url(#a)">
    <path d="M62.5.5a5.25 5.25 0 0 1 5.25 5.25v25.266a5.25 5.25 0 0 1-10.5 0V5.75C57.25 2.85 59.6.5 62.5.5z" fill="#047dd1" fill-rule="evenodd"/>
    <path d="M123.319 28.967c2.056 2.053 2.132 5.306.169 7.266l-8.527 8.516c-1.962 1.959-5.219 1.884-7.275-.169-2.055-2.053-2.131-5.306-.169-7.266l8.527-8.516c1.962-1.96 5.22-1.884 7.275.169z" fill="#047DD1" fill-rule="evenodd"/>
    <path d="M6.053 27.838a5.414 5.414 0 0 0-3.698 1.6c-2.07 2.068-2.145 5.344-.17 7.318l8.586 8.574c1.975 1.973 5.257 1.897 7.327-.17 2.07-2.067 2.146-5.342.17-7.316l-8.586-8.576c-.988-.987-2.304-1.46-3.63-1.43z"/>
  </g>
  <g filter="url(#b)" fill-rule="evenodd">
    <path d="M62.5 189.734a5.25 5.25 0 0 1 5.25 5.25v25.266a5.25 5.25 0 1 1-10.5 0v-25.266a5.25 5.25 0 0 1 5.25-5.25z" fill="#047dd1"/>
    <path fill="#047DD1" d="M2.345 197.033c-2.057-2.053-2.133-5.306-.169-7.266l8.532-8.516c1.964-1.959 5.223-1.884 7.28.169 2.057 2.053 2.133 5.306.169 7.266l-8.532 8.516c-1.964 1.96-5.223 1.884-7.28-.169zM123.373 196.562c2.071-2.068 2.148-5.343.17-7.317l-8.592-8.575c-1.977-1.973-5.259-1.897-7.33.17-2.072 2.067-2.148 5.343-.171 7.316l8.592 8.576c1.978 1.973 5.26 1.897 7.331-.17z"/>
  </g>
</svg>
